_states
version=1
nRows=41
nColumns=17
inDegrees=yes

# SIMM Motion File Header:
name _states
datacolumns 17
datarows 41
otherdata 1
range 0.27252255 0.35536043
endheader
time	/jointset/r_shoulder/r_shoulder_elev/value	/jointset/r_shoulder/r_shoulder_elev/speed	/jointset/r_elbow/r_elbow_flex/value	/jointset/r_elbow/r_elbow_flex/speed	/forceset/TRIlong/activation	/forceset/TRIlong/fiber_length	/forceset/TRIlat/activation	/forceset/TRIlat/fiber_length	/forceset/TRImed/activation	/forceset/TRImed/fiber_length	/forceset/BIClong/activation	/forceset/BIClong/fiber_length	/forceset/BICshort/activation	/forceset/BICshort/fiber_length	/forceset/BRA/activation	/forceset/BRA/fiber_length
      0.27252255	     -9.42352928	     -7.01810276	     48.99068657	    165.72532084	      0.01108907	      0.14997182	      0.02257944	      0.08967400	      0.02142255	      0.08469775	      0.20070291	      0.13221275	      0.02768952	      0.13090288	      0.01125075	      0.08217869
      0.27426378	     -9.43512198	     -6.29865866	     49.27762316	    163.85351772	      0.01106511	      0.15008398	      0.02274810	      0.08978200	      0.02157559	      0.08480371	      0.20104953	      0.13203644	      0.02768356	      0.13072426	      0.01122627	      0.08211007
      0.27600501	     -9.44546889	     -5.58744107	     49.56131391	    161.99999436	      0.01104167	      0.15017759	      0.02291525	      0.08988865	      0.02172735	      0.08491058	      0.20138712	      0.13186091	      0.02767722	      0.13054652	      0.01120233	      0.08204181
      0.27774624	     -9.45458511	     -4.88507020	     49.84178550	    160.15522932	      0.01101876	      0.15027990	      0.02307922	      0.08999398	      0.02187637	      0.08501597	      0.20170951	      0.13168619	      0.02767033	      0.13036972	      0.01117890	      0.08197392
      0.28021289	     -9.46542369	     -3.90628809	     50.23363599	    157.57099590	      0.01098718	      0.15041696	      0.02330747	      0.09014099	      0.02208399	      0.08516308	      0.20214486	      0.13144011	      0.02765961	      0.13012096	      0.01114658	      0.08187838
      0.28213702	     -9.47221631	     -3.15606883	     50.53489933	    155.57255055	      0.01096323	      0.15053250	      0.02348327	      0.09025381	      0.02224403	      0.08527595	      0.20247100	      0.13124935	      0.02765047	      0.12992835	      0.01112205	      0.08180437
      0.28406115	     -9.47757711	     -2.41818561	     50.83233976	    153.60061380	      0.01093987	      0.15063461	      0.02365751	      0.09036508	      0.02240276	      0.08538728	      0.20278732	      0.13105965	      0.02764068	      0.12973702	      0.01109811	      0.08173084
      0.28598528	     -9.48152982	     -1.69241173	     51.12600295	    151.64395428	      0.01091708	      0.15074650	      0.02382823	      0.09047481	      0.02255892	      0.08549705	      0.20308787	      0.13087105	      0.02763014	      0.12954701	      0.01107472	      0.08165779
      0.28790942	     -9.48409823	     -0.97940673	     51.41592423	    149.71343564	      0.01089486	      0.15084914	      0.02399595	      0.09058303	      0.02271292	      0.08560530	      0.20337415	      0.13068355	      0.02761884	      0.12935833	      0.01105187	      0.08158524
      0.28983355	     -9.48530696	     -0.27910881	     51.70215060	    147.80172978	      0.01087317	      0.15095808	      0.02416159	      0.09068974	      0.02286541	      0.08571203	      0.20364924	      0.13049717	      0.02760680	      0.12917099	      0.01102954	      0.08151318
      0.29223268	     -9.48494707	      0.57564964	     52.05392100	    145.45565975	      0.01084688	      0.15108409	      0.02436598	      0.09082072	      0.02305396	      0.08584301	      0.20397960	      0.13026639	      0.02759077	      0.12893930	      0.01100243	      0.08142406
      0.29406488	     -9.48330509	      1.21472867	     52.31879991	    143.68351953	      0.01082735	      0.15119005	      0.02451969	      0.09091919	      0.02319577	      0.08594148	      0.20421973	      0.13009134	      0.02757754	      0.12876379	      0.01098225	      0.08135652
      0.29589709	     -9.48050338	      1.84151783	     52.58045532	    141.93894151	      0.01080827	      0.15128425	      0.02467140	      0.09101637	      0.02333566	      0.08603866	      0.20444946	      0.12991735	      0.02756339	      0.12858953	      0.01096254	      0.08128946
      0.29772929	     -9.47656444	      2.45610688	     52.83893260	    140.21345746	      0.01078964	      0.15138424	      0.02482169	      0.09111225	      0.02347420	      0.08613454	      0.20467090	      0.12974441	      0.02754834	      0.12841651	      0.01094328	      0.08122287
      0.30030727	     -9.46913982	      3.29977970	     53.19731272	    137.82814293	      0.01076415	      0.15151754	      0.02503144	      0.09124500	      0.02366752	      0.08626729	      0.20497141	      0.12950290	      0.02752565	      0.12817518	      0.01091691	      0.08112999
      0.30222846	     -9.46220959	      3.91246243	     53.46042155	    136.07649551	      0.01074571	      0.15162450	      0.02518556	      0.09134230	      0.02380995	      0.08636458	      0.20518526	      0.12932428	      0.02750763	      0.12799695	      0.01089780	      0.08106138
      0.30414966	     -9.45411562	      4.51119567	     53.72019302	    134.35610560	      0.01072771	      0.15172053	      0.02533751	      0.09143827	      0.02395089	      0.08646053	      0.20538993	      0.12914685	      0.02748867	      0.12782010	      0.01087913	      0.08099330
      0.30607085	     -9.44488474	      5.09600533	     53.97668236	    132.65838122	      0.01071016	      0.15182300	      0.02548796	      0.09153291	      0.02409079	      0.08655514	      0.20558739	      0.12897061	      0.02746880	      0.12764462	      0.01086089	      0.08092575
      0.30851870	     -9.43151876	      5.82073480	     54.29880420	    130.53819659	      0.01068841	      0.15194524	      0.02567815	      0.09165160	      0.02426800	      0.08667379	      0.20583084	      0.12874776	      0.02744218	      0.12742302	      0.01083826	      0.08084046
      0.31046458	     -9.41964538	      6.38052334	     54.55119788	    128.87961005	      0.01067161	      0.15205063	      0.02582786	      0.09174445	      0.02440758	      0.08676660	      0.20601776	      0.12857198	      0.02741988	      0.12724844	      0.01082075	      0.08077326
      0.31241045	     -9.40669686	      6.92575437	     54.80039429	    127.25416178	      0.01065522	      0.15214510	      0.02597620	      0.09183601	      0.02454584	      0.08685813	      0.20619889	      0.12839741	      0.02739649	      0.12707527	      0.01080367	      0.08070660
      0.31435632	     -9.39270157	      7.45640800	     55.04645285	    125.65311686	      0.01063924	      0.15224599	      0.02612356	      0.09192630	      0.02468319	      0.08694839	      0.20637547	      0.12822404	      0.02737202	      0.12690348	      0.01078700	      0.08064049
      0.31680908	     -9.37361331	      8.10447441	     55.35221691	    123.67941050	      0.01061966	      0.15236515	      0.02630841	      0.09203834	      0.02485545	      0.08706038	      0.20659306	      0.12800723	      0.02733970	      0.12668891	      0.01076655	      0.08055792
      0.31879603	     -9.35700295	      8.61240301	     55.59639878	    122.10941049	      0.01060425	      0.15246950	      0.02645840	      0.09212765	      0.02499543	      0.08714966	      0.20676652	      0.12783297	      0.02731232	      0.12651670	      0.01075044	      0.08049164
      0.32078298	     -9.33939847	      9.10514295	     55.83749346	    120.57409728	      0.01058922	      0.15256334	      0.02660914	      0.09221570	      0.02513640	      0.08723767	      0.20693832	      0.12765995	      0.02728388	      0.12634590	      0.01073472	      0.08042592
      0.32276994	     -9.32083004	      9.58267018	     56.07556469	    119.06460756	      0.01057458	      0.15266364	      0.02676040	      0.09230250	      0.02527804	      0.08732443	      0.20710882	      0.12748815	      0.02725441	      0.12617651	      0.01071939	      0.08036075
      0.32520522	     -9.29680137	     10.14735849	     56.36331048	    117.25882936	      0.01055714	      0.15277857	      0.02694627	      0.09240724	      0.02545228	      0.08742912	      0.20731645	      0.12727925	      0.02721692	      0.12597081	      0.01070110	      0.08028162
      0.32722528	     -9.27584478	     10.59850227	     56.59869329	    115.79035432	      0.01054308	      0.15288155	      0.02710084	      0.09249276	      0.02559740	      0.08751460	      0.20748861	      0.12710732	      0.02718469	      0.12580176	      0.01068634	      0.08021658
      0.32924534	     -9.25399252	     11.03419153	     56.83114318	    114.35716538	      0.01052938	      0.15297441	      0.02725575	      0.09257708	      0.02574306	      0.08759888	      0.20766132	      0.12693663	      0.02715144	      0.12563412	      0.01067195	      0.08015210
      0.33126540	     -9.23127584	     11.45431182	     57.06072642	    112.95063472	      0.01051603	      0.15307361	      0.02741088	      0.09266023	      0.02588910	      0.08768199	      0.20783446	      0.12676715	      0.02711720	      0.12546788	      0.01065792	      0.08008816
      0.33370186	     -9.20277094	     11.94058260	     57.33390249	    111.29841271	      0.01050039	      0.15318546	      0.02759827	      0.09275899	      0.02606565	      0.08778072	      0.20804387	      0.12656434	      0.02707462	      0.12526921	      0.01064145	      0.08001175
      0.33575542	     -9.17784467	     12.33294564	     57.56105693	    109.93592054	      0.01048758	      0.15328708	      0.02775766	      0.09284097	      0.02621602	      0.08786265	      0.20822299	      0.12639473	      0.02703765	      0.12510330	      0.01062796	      0.07994794
      0.33780897	     -9.15212882	     12.70964933	     57.78544797	    108.60915102	      0.01047510	      0.15337901	      0.02791868	      0.09292181	      0.02636813	      0.08794345	      0.20840532	      0.12622634	      0.02699969	      0.12493878	      0.01061481	      0.07988467
      0.33986253	     -9.12565559	     13.07054495	     58.00714395	    107.30957091	      0.01046295	      0.15347715	      0.02808081	      0.09300153	      0.02652142	      0.08802314	      0.20859013	      0.12605914	      0.02696079	      0.12477564	      0.01060198	      0.07982193
      0.34191609	     -9.09845722	     13.41593059	     58.22620416	    106.04322461	      0.01045112	      0.15356975	      0.02824375	      0.09308016	      0.02667557	      0.08810174	      0.20877698	      0.12589311	      0.02692096	      0.12461385	      0.01058949	      0.07975971
      0.34448441	     -9.06346898	     13.82596093	     58.49656651	    104.49913120	      0.01043675	      0.15369125	      0.02845013	      0.09317702	      0.02687080	      0.08819856	      0.20901734	      0.12568710	      0.02686973	      0.12441338	      0.01057430	      0.07968261
      0.34649514	     -9.03536021	     14.13034964	     58.70550256	    103.32709211	      0.01042583	      0.15377842	      0.02861374	      0.09325171	      0.02702556	      0.08827323	      0.20921129	      0.12552705	      0.02682850	      0.12425786	      0.01056276	      0.07962279
      0.34850587	     -9.00665421	     14.41996968	     58.91210841	    102.18024215	      0.01041519	      0.15387146	      0.02877855	      0.09332544	      0.02718143	      0.08834694	      0.20940910	      0.12536808	      0.02678632	      0.12410358	      0.01055150	      0.07956344
      0.35104486	     -8.96959924	     14.76508737	     59.16974802	    100.77585622	      0.01040214	      0.15398260	      0.02898814	      0.09341720	      0.02737968	      0.08843869	      0.20966362	      0.12516885	      0.02673174	      0.12391050	      0.01053768	      0.07948916
      0.35320264	     -8.93743950	     15.04018163	     59.38594311	     99.61432844	      0.01039138	      0.15408303	      0.02916958	      0.09349403	      0.02755170	      0.08851550	      0.20988708	      0.12500083	      0.02668432	      0.12374791	      0.01052628	      0.07942660
      0.35536043	     -8.90470377	     15.29910772	     59.59966887	     98.48921527	      0.01038092	      0.15417460	      0.02935347	      0.09356983	      0.02772632	      0.08859128	      0.21011626	      0.12483398	      0.02663599	      0.12358667	      0.01051519	      0.07936453
